<?xml version="1.0" encoding="utf-8"?>
<!-- Generator: Adobe Illustrator 27.5.0, SVG Export Plug-In . SVG Version: 6.00 Build 0)  -->
<svg version="1.1" xmlns="http://www.w3.org/2000/svg" xmlns:xlink="http://www.w3.org/1999/xlink" x="0px" y="0px"
	 viewBox="0 0 500 500" style="enable-background:new 0 0 500 500;" xml:space="preserve">
<g id="BACKGROUND">
	<g>
		<g>
			<rect style="fill:#FFF2EA;" width="500" height="500"/>
		</g>
	</g>
</g>
<g id="OBJECTS">
	<g>
		<path style="fill:#FFFFFF;" d="M369.18,257.804c0,12.21-1.84,24-5.26,35.09H136.08c-3.42-11.09-5.26-22.88-5.26-35.09
			c0-65.83,53.36-119.18,119.18-119.18S369.18,191.974,369.18,257.804z"/>
		<g>
			<g>
				<g>
					<path style="fill:#FFFFFF;" d="M231.501,266.512l-0.75-0.58c0,0-10.42,12.67-13.49,17.08c-2.1,3.02-3.22,7.42-2.31,11.77
						c-11.8,0.69-28.91,0.13-39.79-7.12c-17.98-11.99-22.52-46.17,3.6-64.13c23.97-16.48,41.95-6.29,41.95-6.29
						c3.89,2.48,7.52,5.75,10.79,9.54C227.081,239.952,226.841,254.322,231.501,266.512z"/>
					<path style="fill:#EFEFEF;" d="M178.761,223.532c0,0-11.105,12.438,1.829,17.311c8.625,3.25,29.528-3.941,29.528-3.941
						l5.264,21.999c0,0-11.392-6.413-23-3.391c-11.608,3.022-23.897,22.213-23.897,22.213l-2.705-0.184
						C165.78,277.54,147.641,248.721,178.761,223.532z"/>
				</g>
				<g>
					<path style="fill:#B2682B;" d="M277.925,170.324l-10.29,3.26l-9.69,3.08l-0.74,0.23c0,0-0.3-1.29,0.2-3.02
						c0.3-1.08,0.91-2.32,2.1-3.54c1.24-1.27,3.12-2.51,5.93-3.48C275.195,163.484,277.925,170.324,277.925,170.324z"/>
					<path style="fill:#A05A25;" d="M267.635,173.584c-1.59,1.3-3.75,2.76-3.75,2.76s-4.88,0.91-5.94,0.32
						c-0.14-0.08-0.22-0.18-0.2-0.32c0.06-0.52-0.14-1.51-0.34-2.47c0.3-1.08,0.91-2.32,2.1-3.54c2.84-1.26,7.21-3.16,7.21-3.16
						s-3.33,2.21-1.9,4.21c0.32,0.44,1.44,0.94,2.62,0.56C270.365,171.004,269.325,172.204,267.635,173.584z"/>
				</g>
				<g>
					<path style="fill:#FFE052;" d="M184.655,219.964l-11.92,8.49l-0.27,0.2c0,0-11-5.93-2.44-13.62c0.26-0.23,0.52-0.45,0.8-0.66
						C176.305,210.214,184.055,211.514,184.655,219.964z"/>
					<path style="fill:#FFD833;" d="M177.985,221.374c-0.19,0.27-3.17,4.37-5.25,7.08l-0.27,0.2c0,0-11-5.93-2.44-13.62
						c0.26-0.23,0.52-0.45,0.8-0.66l2.82,0.58c0,0-3.68,3.18-0.74,5.89C174.585,222.394,177.755,221.434,177.985,221.374z"/>
				</g>
				<path style="fill:#EA965C;" d="M337.276,194.542c0,0,17.242,31.451,3.371,36.633c-19.852,7.417-32.588-30.79-32.588-30.79
					S321.993,190.122,337.276,194.542z"/>
				<path style="fill:#FFDBBD;" d="M325.335,305.604c0,0-3.81,3.33-11.52,3.18c-7.72-0.15-7.78-0.75-10.85-0.75
					c-3.07,0-4.72,0.6-6.29-0.15c-0.44-0.2-0.88-0.65-1.33-1.2c-0.06,0.07-0.11,0.15-0.18,0.23c-1.83,2.05-7.18,1.87-10.7,1.65
					c-3.53-0.23-6.22,0.63-9.89,0.71c-3.67,0.07-10.12-1.69-10.12-1.69s-15.73,4.8-33.71,0.6c-9.94-2.32-14.47-7.66-15.73-13.14
					c-0.2,0.2-0.4,0.39-0.6,0.59c-0.17,0.16-0.34,0.32-0.52,0.47c-6.22,5.54-15.61,8.85-26.98,8.67
					c-20.42-0.33-32.87-2.98-35.69-2.98s-17.43,3.65-21.75,0.99c-4.31-2.65-1.66-8.3,3.32-8.3c0,0,3.39-2.1,5.51-3.49
					c0.23-0.14,0.44-0.28,0.63-0.41c2-1.33,5.98-11.2,12.29-14.52c6.31-3.32,9.96,2.82,9.96,2.82s5.48-1.16,7.3-1.16
					c0,0,4.32-12.62,16.44-19.09c12.11-6.48,21.82-3.99,29.85,1.99c0,0,6.87,5.18,7.37,15.97c3.99-5.05,8.6-10.66,8.6-10.66
					l0.76,0.58c-5.57-14.53-4.14-32.16,2.99-47.18c19.78-41.65,77.01-36.55,90.21-27.16c10.44,7.43,15.06,18.52,17.66,25.37
					c4.8,12.58,10.87,14.9,11.39,26.74c0.31,7.07-2.07,15.7-7.92,23.85c3.74,1.84,13.44,7.24,17.25,15.66
					c0.6,1.3,1.05,2.68,1.31,4.13C366.795,301.054,352.685,310.024,325.335,305.604z"/>
				<path style="fill:#FCC49D;" d="M181.408,263.616c0,0-6.568,11.322-2.044,13.924l-10.315-0.696l5.833-9.958L181.408,263.616z"/>
				<path style="fill:#FCC49D;" d="M364.395,287.924c-0.26-1.45-0.71-2.83-1.31-4.13c-1.73-0.77-2.78-0.99-2.67-0.34
					c0.53,3.19,0.17,13.31-10.2,15.22c-10.37,1.92-27.5,0.92-27.5,0.92c-4.08,3.58-14.67,2.92-18.08,2.75
					c-3.42-0.17-7.94-0.04-7.94-0.04s-1.73,0.87-2.89,2.12c-1.16,1.24-8.34-0.58-13.73-0.33c-5.4,0.25-12.24-3.13-16.36-3.63
					s-15.828,1.63-31.208-0.87s-14.122-14.11-14.122-14.11l-4.35-1.293c-1.143,2.677-6.904,10.237-25.57,11.483
					c-10.308,0.688-31.33-2.66-35.83-2.16s-10.92,4.91-13.59,3.5c-2.66-1.42,1.13-4.57,1.13-4.57l-1.87-1.45
					c-2.12,1.39-5.51,3.49-5.51,3.49c-4.98,0-7.63,5.65-3.32,8.3c4.32,2.66,18.93-0.99,21.75-0.99s15.27,2.65,35.69,2.98
					c11.375,0.185,20.761-3.14,26.981-8.681l-0.001,0.011c0.18-0.15,0.35-0.31,0.52-0.47c0.2-0.2,0.4-0.39,0.6-0.59
					c1.26,5.48,5.79,10.82,15.73,13.14c17.98,4.2,33.71-0.6,33.71-0.6s6.45,1.76,10.12,1.69c3.67-0.08,6.36-0.94,9.89-0.71
					c3.52,0.22,8.87,0.4,10.7-1.65c0.07-0.08,0.12-0.16,0.18-0.23c0.45,0.55,0.89,1,1.33,1.2c1.57,0.75,3.22,0.15,6.29,0.15
					c3.07,0,3.13,0.6,10.85,0.75c7.71,0.15,11.52-3.18,11.52-3.18C352.685,310.024,366.795,301.054,364.395,287.924z"/>
				<path style="fill:#FCC49D;" d="M323.401,202.713l-61.625,23.509l2.72,5.723l3.53,13.626c-0.974-6.627,4.128-10.203,6.111-11.326
					c7.32-1.371,10.264-7.012,10.264-7.012c16.805,1.74,17.438-8.375,17.438-8.375c13.25,5.875,18.313-6.063,18.313-6.063
					c9.175,2.037,10.063-6.75,10.063-6.75L323.401,202.713z"/>
				<path style="fill:#FFFFFF;" d="M259.983,224.991c0,0,4.745,4.695,12.662,3.278c7.917-1.417,8.583-9.5,8.583-9.5
					s4.881,4.771,11.75,2.417c4.455-1.527,5.583-8.402,5.583-8.402s6.768,3.434,11.25,1.881c6.125-2.122,5.667-8.396,5.667-8.396
					s6.248,4.489,11.574,1.708c5.865-3.063,2.806-11.427,2.806-11.427S283.904,205.38,259.983,224.991"/>
				<path style="fill:#FCC49D;" d="M258.455,267.651c0,0,15.687,24.598,56.115,13.068c8.829-2.518,24.511-8,32.03-17.961
					c0,0-4.045,17.976-27.902,26.015c-23.857,8.04-29.733,5.738-29.733,5.738s-13.583-4.667-20-4.333
					c-6.417,0.333-10.333-3.083-18.25-4.75c-7.917-1.667-10.75-4.5-10.75-4.5l-2.167-4.5L258.455,267.651z"/>
				<path style="fill:#FCC49D;" d="M327.691,260.12c0,0-2.244,2.204-6.22,3.271c-3.627,0.974,1.746,3.51,4.923,2.011
					C329.971,263.714,329.848,257.986,327.691,260.12z"/>
				<g>
					<g>
						<path style="fill:#313131;" d="M292.108,236.426c1.754,4.242,1.115,8.533-1.427,9.584c-2.543,1.051-6.026-1.535-7.78-5.777
							c-1.754-4.242-1.115-8.533,1.427-9.584C286.871,229.598,290.354,232.184,292.108,236.426z"/>
						<path style="fill:#FFFFFF;" d="M288.612,234.065c0.422,1.02,0.268,2.052-0.343,2.305c-0.612,0.253-1.449-0.369-1.871-1.389
							c-0.422-1.02-0.268-2.053,0.343-2.305C287.352,232.422,288.19,233.044,288.612,234.065z"/>
					</g>
					<g>
						<path style="fill:#313131;" d="M328.867,220.597c1.754,4.242,1.115,8.533-1.427,9.584c-2.542,1.052-6.026-1.535-7.78-5.776
							c-1.754-4.242-1.115-8.533,1.427-9.584C323.63,213.769,327.113,216.355,328.867,220.597z"/>
						<path style="fill:#FFFFFF;" d="M325.512,217.94c0.422,1.02,0.268,2.052-0.343,2.305c-0.611,0.253-1.449-0.369-1.871-1.389
							c-0.422-1.02-0.268-2.053,0.343-2.305C324.252,216.297,325.09,216.919,325.512,217.94z"/>
					</g>
					<path style="fill:#313131;" d="M308.329,243.644c0,0,0.055-4.291,4.15-6.093c4.682-2.06,8.483,1.369,8.337,1.751
						c-0.146,0.382-3.638-1.305-7.643,0.657C309.295,241.859,308.203,245.842,308.329,243.644z"/>
					<path style="fill:#313131;" d="M326.635,249.005c0,0-1.553,5.091-7.713,7.866c-4.158,1.873-10.266-0.075-10.192,0.824
						c0.075,0.899,5.442,4.766,12.776,1.948c7.604-2.922,7.305-10.276,7.076-11.012C328.233,247.507,327.23,247.28,326.635,249.005z
						"/>
					<g>
						<path style="fill:#FF95BB;" d="M293.39,252.006c1.137,2.685-2.132,6.636-7.303,8.826c-5.17,2.19-10.283,1.789-11.42-0.896
							c-1.137-2.685,2.132-6.636,7.303-8.826C287.14,248.92,292.253,249.322,293.39,252.006z"/>
						<path style="fill:#FFCCE1;" d="M283.081,254.697c0.365,0.863-0.685,2.133-2.347,2.837c-1.662,0.704-3.305,0.575-3.671-0.288
							c-0.366-0.863,0.685-2.133,2.347-2.837S282.716,253.834,283.081,254.697z"/>
					</g>
					<g>
						<path style="fill:#FF95BB;" d="M348.807,226.451c1.137,2.685-2.133,6.636-7.303,8.826c-5.17,2.19-10.283,1.789-11.421-0.896
							c-1.137-2.685,2.133-6.636,7.303-8.826C342.556,223.365,347.669,223.766,348.807,226.451z"/>
						<path style="fill:#FFCCE1;" d="M339.008,228.578c0.366,0.863-0.685,2.133-2.347,2.837c-1.662,0.704-3.305,0.575-3.671-0.288
							c-0.365-0.863,0.686-2.133,2.347-2.837C336.999,227.586,338.642,227.715,339.008,228.578z"/>
					</g>
				</g>
				<g>
					<path style="fill:#EA965C;" d="M258.166,221.795c0,0,12.59,19.894,8.39,35.75c-1.498,5.657-7.192,12.516-16.032,15.432
						L233.22,232.13L258.166,221.795z"/>
					<path style="fill:#B2682B;" d="M253.925,227.224c0,0,20.2,34.32-3.4,45.75c-14.53,7.05-30.51-2.59-36.86-20.45
						c-4.98-14.02-6.14-37.65,10.48-55.95c0.01-0.01,0.01-0.02,0.01-0.02c8.87-9.76,22.8-18,43.9-22.46c0,0,28.56-14.43,52.83,2.25
						c5.87,4.03,11.49,9.89,16.39,18.2C337.275,194.544,292.475,200.914,253.925,227.224z"/>
					<path style="fill:#A05A25;" d="M253.925,227.224c0,0,20.2,34.32-3.4,45.75c-14.53,7.05-30.51-2.59-36.86-20.45
						c-4.98-14.02-6.14-37.65,10.48-55.95c-0.29,0.64-9.559,16.374,2.19,19.89c12.963,3.88,20.88-14.62,20.88-14.62
						s17.755,5.825,42.38-4.12c25.703-10.38,21.356-19.828,21.266-20.088c0.44,0.19,10.214,4.298,10.024-1.292
						c5.87,4.03,11.49,9.89,16.39,18.2C337.275,194.544,292.475,200.914,253.925,227.224z"/>
					<path style="fill:#CC783A;" d="M270.59,177.906c-0.557-1.737,21.792-8.688,38.542,2.354c0.713,0.47,1.18,1.524-0.833,0.854
						c-3.573-1.189-9.875-4.563-20.25-4.771C275.339,176.089,270.83,178.654,270.59,177.906z"/>
				</g>
				<g>
					<path style="fill:#FFE052;" d="M379.625,186.604c-1.68,1.39-3.75,2.89-5.83,3.86c-1.44,0.68-2.25,2.18-2.04,3.76
						c0.32,2.3,0.17,4.93-0.1,7.15c-0.3,2.54-3.1,3.92-5.29,2.59c-1.88-1.13-3.99-2.63-5.54-4.37c-1.05-1.17-2.8-1.5-4.2-0.78
						c-2.07,1.07-4.58,1.72-6.74,2.1c-2.52,0.45-4.64-1.84-4.01-4.31c0.53-2.14,1.33-4.61,2.42-6.62c0.01-0.03,0.02-0.06,0.04-0.09
						c0.77-1.4,0.55-3.1-0.56-4.24c-1.59-1.65-2.99-3.79-4.06-5.7c-1.27-2.25,0.25-5.05,2.83-5.21c2.22-0.13,4.85-0.11,7.18,0.37
						c1.48,0.3,3.01-0.34,3.76-1.65c1.08-1.89,2.55-3.79,3.91-5.39c1.76-2.06,5.07-1.45,5.98,1.1c0.7,1.99,1.39,4.29,1.72,6.44
						c0.23,1.49,1.43,2.64,2.92,2.89c2.35,0.38,4.81,1.31,6.83,2.22c0.59,0.27,1.06,0.67,1.39,1.15
						C381.255,183.284,381.115,185.364,379.625,186.604z"/>
					<path style="fill:#FFD833;" d="M379.625,186.604c-1.68,1.39-3.75,2.89-5.83,3.86c-1.44,0.68-2.25,2.18-2.04,3.76
						c0.32,2.3,0.17,4.93-0.1,7.15c-0.3,2.54-3.1,3.92-5.29,2.59c-1.88-1.13-3.99-2.63-5.54-4.37c-1.05-1.17-2.8-1.5-4.2-0.78
						c-2.07,1.07-4.58,1.72-6.74,2.1c-2.52,0.45-4.64-1.84-4.01-4.31c0.53-2.14,1.33-4.61,2.42-6.62c1.29-0.08,2.47-0.13,2.47-0.13
						s-0.05,4.331,2.45,4.271c2.5-0.06,4.469-2.095,6.25-1.901c1.969,0.214,4.563,4.245,6.582,3.641
						c1.679-0.502-0.392-6.521,0.668-7.462c1.06-0.94,9.825-5.086,9.065-6.536c-0.45-0.86,2.695-0.274,4.455,0.006
						C381.255,183.284,381.115,185.364,379.625,186.604z"/>
					<path style="fill:#FFFFFF;" d="M360.372,175.677c0,0-0.573,1.458-3.35,2.604c-2.142,0.884-5.431-0.229-5.494,1.083
						s4.354,2.583,6.438,2.063c2.976-0.744,5.069-5.505,4.438-6.438C361.715,173.974,360.372,175.677,360.372,175.677z"/>
				</g>
			</g>
			<path style="fill:#6B3121;" d="M382.939,182.426c-0.452-1.728-1.764-3.106-3.395-3.834c-2.621-1.17-5.03-1.942-7.165-2.296
				c-0.556-0.091-0.998-0.51-1.075-1.017c-0.307-1.997-0.921-4.302-1.827-6.851c-0.146-0.412-0.343-0.792-0.568-1.149
				c-0.033-0.074-0.088-0.167-0.192-0.302c-1.459-1.904-2.16-6.404-2.16-6.404l-0.007,0.008
				c-1.247-9.292-5.225-20.576-15.694-30.592c-10.034-9.603-23.599-14.33-38.202-13.305c-13.904,0.974-27.623,7.179-34.139,15.442
				c-1.136,1.441-2.115,2.901-2.935,4.365c-15.77,7.205-13.975,23.327-12.781,29.011c-5.91,2.66-7.732,6.804-7.915,9.796
				c-18.637,6.097-31.954,16.083-39.643,29.809c-1.381,2.465-2.524,4.982-3.465,7.521c-6.328-0.975-15.091-0.635-25.463,4.131
				c-0.709-2.864-2.462-5.058-5.047-6.211c-4.002-1.787-9.205-0.727-12.948,2.633c-5.357,4.811-4.77,9.15-3.944,11.309
				c0.832,2.171,2.5,3.868,4.208,4.936c-12.183,13.803-13.078,32.814-6,46.895c-0.145,0.028-0.307,0.058-0.441,0.085
				c-2.177-2.554-6.466-5.212-11.957-2.323c-4.671,2.459-7.96,7.701-10.361,11.528c-0.787,1.253-1.765,2.813-2.121,3.114
				c-1.536,1.024-4.43,2.834-5.586,3.554c-3.23,0.261-5.974,2.359-6.801,5.282c-0.786,2.775,0.361,5.506,2.993,7.126
				c3.563,2.193,10.942,1.21,18.832-0.089c1.722-0.283,3.502-0.576,4.084-0.576c0.65,0,2.301,0.224,4.391,0.508
				c5.769,0.783,16.507,2.24,31.263,2.48c0.314,0.005,0.626,0.008,0.939,0.008c10.417,0,19.552-2.841,26.188-8.092
				c1.951,4.149,6.34,9.127,16.238,11.436c5.69,1.33,11.14,1.79,15.97,1.79c9.22,0,16.18-1.68,18.27-2.25
				c1.76,0.45,6.86,1.63,10.14,1.6c1.71-0.03,3.18-0.22,4.6-0.4c1.71-0.22,3.31-0.42,5.1-0.31c4.161,0.269,8.281,0.271,10.945-1.177
				c0.135,0.11,0.281,0.21,0.446,0.289c1.567,0.746,3.085,0.625,4.69,0.494c0.743-0.059,1.586-0.128,2.563-0.128
				c1.101,0,1.727,0.082,2.674,0.207c1.444,0.19,3.422,0.451,8.131,0.543c0.182,0.003,0.362,0.005,0.541,0.005
				c6.063,0,9.937-1.994,11.588-3.072c16.962,2.589,29.933,0.286,36.596-6.515c3.661-3.735,5.078-8.549,4.098-13.918
				c-1.852-10.145-11.58-16.941-17.497-20.204c4.772-7.395,7.235-15.505,6.897-23.123c-0.34-7.69-2.87-11.71-5.79-16.37
				c-0.68-1.085-1.393-2.224-2.115-3.476c1.627-11.583-8.414-30.078-8.853-30.878c-0.006-0.011-0.014-0.019-0.02-0.03
				c-0.006-0.01-0.008-0.022-0.014-0.032c-13.551-22.983-32.498-27.565-46.012-27.337c-5.248,0.083-10.048,0.867-14.073,1.841
				c-1.794-2.548-5.681-5.217-12.085-3.813c-0.902-4.312-1.933-14.325,5.882-20.746c-0.852,3.921-0.498,7.714,1.119,11.098
				c2.309,4.834,7.041,7.995,12.054,8.053c0.058,0.001,0.115,0.001,0.174,0.001c6.662,0,12.49-4.393,14.209-10.734
				c1.214-4.475-0.672-10.095-4.584-13.666c-2.209-2.014-6.608-4.789-13.425-3.744c5.888-6.964,18.292-12.363,30.507-13.219
				c9.43-0.655,23.122,0.898,34.803,12.075c9.483,9.074,13.146,19.281,14.324,27.732c0.275,1.973-0.557,3.874-1.995,5.254
				c-0.137,0.131-0.268,0.27-0.394,0.417c-1.758,2.054-3.156,3.986-4.158,5.743c-0.254,0.447-0.815,0.677-1.37,0.565
				c-2.114-0.434-4.636-0.576-7.497-0.423c-1.786,0.096-3.507,0.909-4.551,2.361c-1.337,1.859-1.454,4.241-0.356,6.188
				c1.43,2.539,2.912,4.608,4.404,6.15c0.423,0.438,0.504,1.071,0.207,1.614c-1.004,1.825-1.88,4.164-2.604,6.955
				c-0.442,1.701-0.226,3.554,0.787,4.99c1.313,1.86,3.527,2.748,5.717,2.355c2.932-0.524,5.412-1.303,7.37-2.314
				c0.503-0.26,1.127-0.145,1.504,0.278c1.469,1.648,3.505,3.262,6.055,4.8c0.915,0.553,1.941,0.831,2.97,0.831
				c1.293,0,2.593-0.441,3.676-1.333c1.198-0.987,1.878-2.468,2.053-4.01c0.325-2.867,0.346-5.371,0.062-7.444
				c-0.084-0.613,0.219-1.177,0.771-1.434c1.943-0.906,4.066-2.308,6.311-4.165C382.773,186.901,383.517,184.639,382.939,182.426z
				 M171.301,216.506c2.413-2.168,5.762-2.941,8.144-1.878c1.58,0.704,2.506,2.16,2.711,4.237c-1.517,0.842-3.059,1.764-4.633,2.807
				c-2.074,1.374-3.96,2.862-5.682,4.437c-0.955-0.377-2.766-1.604-3.358-3.388C167.858,220.837,168.806,218.745,171.301,216.506z
				 M179.991,225.396c12.643-8.376,23.174-9.397,30.385-8.449c-3.735,13.354-2.178,26.857,1.188,36.327
				c0.423,1.19,0.894,2.344,1.398,3.468c-9.164-5.466-18.932-5.51-29.092-0.082c-10.171,5.434-15.119,14.776-16.803,18.617
				C158.82,260.071,161.278,237.792,179.991,225.396z M212.606,294.247c-6.066,5.524-15.111,8.459-25.657,8.297
				c-14.49-0.235-25.057-1.67-30.734-2.44c-2.519-0.342-4.04-0.548-4.992-0.548c-0.902,0-2.342,0.229-4.809,0.635
				c-4.327,0.713-13.33,2.193-15.767,0.692c-0.922-0.567-1.27-1.275-1.036-2.104c0.29-1.023,1.477-2.06,3.185-2.06
				c0.416,0,0.824-0.116,1.177-0.335c0.171-0.107,4.205-2.608,6.204-3.941c1.084-0.722,2.016-2.208,3.427-4.457
				c2.132-3.397,5.051-8.051,8.658-9.949c4.158-2.188,6.567,1.282,7,1.987c0.489,0.822,1.448,1.242,2.383,1.043
				c2.03-0.431,5.683-1.113,6.841-1.113c0.041,0,0.081-0.007,0.122-0.01c0.029-0.002,0.058,0.003,0.087,0
				c1.412-0.133,3.447-0.164,5.137,0.02c1.011,0.11,6.171,0.731,6.686,0.035c0.771-1.042-0.721-2.425-2.188-3
				c-2.021-0.792-4.494-1.183-6.492-1.368c1.94-3.875,6.308-10.85,14.133-15.031c9.945-5.311,18.671-4.737,27.46,1.81
				c0.059,0.044,5.68,4.386,6.426,13.428c-1.575,2.007-3.223,4.167-4.429,5.905C212.965,285.286,211.975,289.907,212.606,294.247z
				 M293.491,305.432c-0.48,0.52-2.26,1.32-8.89,0.9c-2.21-0.14-4.11,0.1-5.94,0.34c-1.31,0.16-2.66,0.34-4.14,0.37
				c-2.75,0.1-7.77-1.14-9.47-1.61c-0.41-0.11-0.84-0.1-1.24,0.02c-0.15,0.04-15.36,4.57-32.56,0.56
				c-7.03-1.64-11.72-5.03-13.56-9.8c-0.198-0.514-0.35-1.028-0.474-1.538c-0.014-0.085-0.039-0.167-0.063-0.249
				c-0.9-4.072,0.393-7.906,1.947-10.132c1.221-1.76,2.96-4.028,4.591-6.098c0.161-0.153,0.301-0.326,0.41-0.52
				c1.292-1.632,2.468-3.083,3.222-4.007c1.242,0.746,2.521,1.405,3.841,1.946c1.01,0.414,2.027,0.754,3.047,1.035
				c0.003,0.004,0.006,0.009,0.009,0.013c1.31,1.96,2.88,3.97,4.76,5.94c-0.98,0.1-1.99,0.23-3.04,0.41
				c-1.22,0.2-3.65,0.82-3.38,1.9c0.25,1.01,1.95,0.77,3.17,0.57c2.06-0.35,4-0.47,5.79-0.42c0.13,0,0.26,0,0.38,0.02
				c0.26,0,0.51,0.02,0.76,0.04c0.57,0.02,1.11,0.08,1.64,0.15c0.23,0.03,0.46,0.06,0.68,0.1c0.17,0.01,0.34,0.04,0.5,0.08
				c0.27,0.04,0.53,0.09,0.78,0.14c0.15,0.03,0.3,0.06,0.45,0.1c0.49,0.1,0.97,0.22,1.43,0.35c0.76,0.21,1.48,0.44,2.16,0.7
				c0.38,0.15,0.75,0.29,1.1,0.44c0.04,0.02,0.09,0.04,0.14,0.06c0.2,0.09,0.39,0.18,0.58,0.26c0.19,0.08,0.37,0.17,0.55,0.27
				c0.16,0.07,0.31,0.14,0.46,0.22c2.74,1.42,7.04,3.99,8,4.25h0.01c0.22,0.06,0.44,0.12,0.65,0.16c0.18,0.05,0.35,0.09,0.52,0.12
				c0.15,0.04,0.3,0.07,0.45,0.09c0.14,0.03,0.28,0.05,0.42,0.07c2.05,0.33,3.26,0.13,3.75,0c0.25-0.05,0.5-0.1,0.75-0.14
				c0.17-0.03,0.33-0.06,0.49-0.08c3.82-0.57,7.3-0.03,10.37,0.89c0.26,0.08,0.51,0.16,0.76,0.24c2.15,0.69,4.08,1.55,5.78,2.3
				c1.34,0.59,2.49,1.1,3.54,1.45c0.09,0.03,0.17,0.06,0.25,0.09c0.403,0.146,0.763,0.382,1.079,0.641
				c-1.693-0.252-3.549-0.449-3.606-0.109c-0.068,0.41,2.844,1.13,4.882,1.583l0,0.001c0.612,0.133,1.547,0.537,1.588,1.076
				c0.019,0.245-0.039,0.769-0.611,0.837c0,0,0,0,0,0c-1.902-0.342-6.73-1.149-6.83-0.547c-0.09,0.539,4.128,1.526,6.519,2.041
				c0.001,0,0.001,0.001,0.002,0.001C293.686,303.35,294.262,304.538,293.491,305.432z M223.576,271.031
				c0.027,0.023,0.056,0.043,0.084,0.065c-0.019,0.023-0.033,0.041-0.053,0.065C223.596,271.118,223.587,271.073,223.576,271.031z
				 M362.197,288.323c0.719,3.936-0.255,7.297-2.894,9.989c-5.656,5.772-17.905,7.624-33.607,5.087
				c-0.634-0.104-1.312,0.092-1.81,0.509c-0.135,0.113-3.379,2.792-10.03,2.646c-4.46-0.087-6.295-0.328-7.635-0.505
				c-1-0.132-1.863-0.245-3.257-0.245c-1.157,0-2.136,0.079-2.922,0.143c-1.003,0.082-1.616,0.123-2.059,0.036
				c0.052-0.405,0.04-0.775-0.003-1.09c-0.16-1.08-0.72-1.96-1.29-2.59c0.08-0.58,0.09-1.26-0.1-1.98c-0.18-0.66-0.56-1.51-1.4-2.29
				c-0.05-0.4-0.17-0.8-0.35-1.22c19.361-2.475,32.476-8.861,41.221-15.557c1.428-0.572,5.261-1.811,10.207-0.882
				c1.211,0.228,2.828,0.457,3.083-0.583c0.271-1.104-1.463-1.88-2.667-2.146c-2.032-0.446-3.878-0.676-5.5-0.78
				c0.881-0.847,1.698-1.687,2.455-2.512c1.006-1.094,1.954-2.219,2.846-3.366C351.191,273.534,360.613,279.641,362.197,288.323z
				 M351.521,244.382c0.39,8.83-3.78,18.9-11.17,26.95c-7.96,8.67-23.14,19.13-50.9,21.56c0,0,0,0-0.01,0
				c-0.74-0.28-1.59-0.66-2.55-1.08c-4.81-2.14-12.09-5.36-20.95-3.49c-0.13,0.03-0.11,0.01-0.19,0.04
				c-0.33,0.06-2.16,0.22-5.89-1.25c-1.3-0.93-6.1-4.18-14.56-4.67c-1.759-1.489-3.388-3.128-4.858-4.907
				c0.077,0.001,0.155,0.006,0.232,0.006c3.622-0.001,7.225-0.836,10.697-2.496c9.747-3.272,15.733-10.845,17.343-16.927
				c2.545-9.611-0.57-20.376-3.819-28.013c1.398,0.398,2.999,0.666,4.792,0.666c1.053,0,2.171-0.092,3.35-0.303
				c5.46-0.977,8.307-4.744,9.58-8.045c2.489,1.311,6.386,2.483,11.084,0.876c3.644-1.249,5.486-4.863,6.362-7.441
				c2.685,0.999,6.973,2.13,10.478,0.918c4.011-1.39,5.927-4.349,6.715-7.001c2.743,1.189,6.907,2.229,10.828,0.183
				c2.869-1.498,4.164-3.991,4.606-6.57c3.42,4.818,5.728,10.061,7.59,14.946c2,5.26,4.2,8.76,6.14,11.86
				C349.221,234.652,351.241,237.882,351.521,244.382z M313.811,206.394c-0.006,0.186-0.278,4.618-4.731,6.161
				c-2.924,1.012-8.144-0.6-9.831-1.358c-1.078-0.484-1.417-1.206-2-0.948c-0.652,0.288-0.266,1.182-0.5,2.125
				c-0.352,1.417-1.89,5.806-4.495,6.7c-5.427,1.861-9.38-0.658-10.109-1.304c-0.648-0.574-1.003-1.398-1.75-1.229
				c-0.646,0.146-0.575,1.346-0.646,2.208c-0.006,0.064-1.344,6.221-7.498,7.323c-4.634,0.829-7.953-0.748-9.58-1.816
				c25.126-15.244,51.69-22.61,65.434-25.666c0.449,2.016,0.855,5.872-2.087,7.409c-4.02,2.096-9.576-0.865-9.624-0.896
				c-1.177-0.75-1.557-1.777-2.313-1.354C313.326,204.172,313.853,205.081,313.811,206.394z M256.865,227.937
				c0.529-0.351,1.059-0.698,1.59-1.042c3.107,6.072,8.798,19.296,5.942,30.078c-0.139,0.525-0.332,1.071-0.562,1.628
				C265.791,246.539,259.438,232.847,256.865,227.937z M336.042,197.005c1.156,2.275,3.47,7.072,5.277,12.341
				c-1.955-4.074-4.378-8.164-7.594-11.919C334.657,197.249,335.434,197.109,336.042,197.005z M322.655,191.009
				c0.685,1.024,1.719,2.063,3.125,1.688c0.898-0.239-0.158-2.537-0.844-3.563c-7.028-10.505-16.02-15.811-24.799-18.255
				c13.753,1.635,24.989,9.019,33.492,22.023c-10.554,1.959-44.352,9.403-75.422,28.863c-0.002,0.001-0.004,0.001-0.005,0.002
				c-0.006,0.003-0.011,0.008-0.017,0.012c-1.84,1.153-3.672,2.342-5.487,3.58c-0.001,0.001-0.002,0.001-0.002,0.001
				c-0.003,0.002-0.017,0.012-0.021,0.015c-0.002,0.001-0.004,0.003-0.006,0.004c0,0,0,0-0.001,0.001
				c-0.611,0.41-10.263,7.132-14.689,10.89c-0.94,0.798-2.59,2.956-1.792,3.896c0.441,0.521,2.198,0.219,4.094-1.281
				c3.182-2.518,9.518-6.5,12.8-8.524c2.647,5.169,9.026,19.322,5.756,30.13c-1.427,4.715-4.464,8.142-9.284,10.478
				c-4.046,1.96-8.313,2.546-12.536,1.751c-0.001-0.002-0.003-0.004-0.004-0.006c-1.385-0.259-2.769-0.668-4.134-1.224
				c-0.006-0.002-0.012-0.004-0.018-0.007c-0.425-0.174-0.844-0.366-1.261-0.566c-0.121-0.058-0.24-0.12-0.361-0.18
				c-6.774-3.398-12.355-10.201-15.466-18.957c-4.045-11.381-5.285-29.044,3.366-44.486c7.007-12.508,19.188-21.714,36.287-27.474
				c-1.803,1.863-3.666,4.136-5.488,6.944c-5.898,9.091-6.726,22.814-2.095,33.903c0.357,0.857,1.813,3.052,2.969,2.5
				c1.113-0.531,0.189-2.487-0.286-3.625c-4.601-11.018-1.153-23.7,3.16-30.347c7.115-10.967,14.795-12.908,14.855-12.923
				c0.085-0.019,0.169-0.043,0.251-0.071C269.142,176.077,304.204,163.431,322.655,191.009z M274.248,169.273
				c-3.646,1.17-6.118,2.301-6.927,2.69c-2.604,0.555-5.105,1.187-7.544,1.865c0.674-1.543,2.339-3.47,6.382-4.864
				C270.356,167.517,272.843,168.268,274.248,169.273z M292.871,141.403c3.041,2.775,3.954,6.728,3.285,9.198
				c-1.006,3.71-4.723,7.436-9.897,7.436c-0.041,0-0.082,0-0.124-0.001c-3.323-0.038-6.492-2.202-8.074-5.513
				c-1.735-3.631-1.442-8.023,0.736-12.543c0.139-0.054,0.276-0.107,0.418-0.159C284.678,137.787,289.526,138.35,292.871,141.403z
				 M378.204,184.885c-1.952,1.615-3.752,2.813-5.351,3.558c-2.329,1.085-3.659,3.531-3.31,6.088
				c0.238,1.738,0.202,4.013-0.103,6.58c-0.075,0.631-0.519,0.912-0.706,1.004c-0.188,0.091-0.678,0.268-1.219-0.058
				c-2.134-1.288-3.872-2.652-5.026-3.947c-1.114-1.249-2.678-1.912-4.269-1.912c-0.89,0-1.788,0.207-2.62,0.637
				c-1.54,0.795-3.652,1.447-6.106,1.886c-0.619,0.113-1.019-0.23-1.159-0.382c-0.142-0.153-0.456-0.574-0.3-1.19
				c0.637-2.511,1.418-4.647,2.261-6.181c1.241-2.262,0.875-5.023-0.912-6.871c-1.21-1.25-2.497-3.061-3.723-5.236
				c-0.311-0.554-0.11-1.045-0.009-1.23c0.1-0.184,0.4-0.615,1.028-0.652c2.582-0.153,4.8-0.044,6.595,0.324
				c2.463,0.508,4.931-0.59,6.149-2.729c0.862-1.512,2.097-3.211,3.672-5.052c0.095-0.111,0.65-0.724,1.179-0.63
				c0.657,0.117,0.966,0.962,0.991,1.032c0.812,2.284,1.357,4.314,1.62,6.031c0.373,2.433,2.288,4.341,4.764,4.748
				c1.811,0.3,3.922,0.992,6.275,2.059c0.572,0.26,0.699,0.77,0.727,0.977C378.682,183.948,378.693,184.479,378.204,184.885z"/>
		</g>
		<g>
			<text transform="matrix(1 0 0 1 135.6403 352.4238)"><tspan x="0" y="0" style="fill:#B2682B; font-family:'Baloo'; font-size:41.2333px;">BABY</tspan><tspan x="92.237" y="0" style="fill:#6B3121; font-family:'Baloo'; font-size:41.2333px;"> STORE</tspan></text>
			
				<text transform="matrix(1 0 0 1 175.168 373.5597)" style="fill:#917D7A; font-family:'Arcon-Rounded-Regular'; font-size:15.2409px;">TAGLINE GOES HERE</text>
		</g>
	</g>
</g>
</svg>
